<mxfile host="app.diagrams.net" modified="2024-08-16T08:37:01.447Z" agent="Mozilla/5.0 (Windows NT 10.0; Win64; x64) AppleWebKit/537.36 (KHTML, like Gecko) Chrome/127.0.0.0 Safari/537.36 Edg/127.0.0.0" etag="akZgGDH5EMDvLG9YQqv_" version="24.5.3" type="github">
  <diagram id="prtHgNgQTEPvFCAcTncT" name="Page-1">
    <mxGraphModel dx="1430" dy="874" grid="0" gridSize="10" guides="1" tooltips="1" connect="1" arrows="1" fold="1" page="1" pageScale="1" pageWidth="1169" pageHeight="827" math="0" shadow="0">
      <root>
        <mxCell id="0" />
        <mxCell id="1" parent="0" />
        <mxCell id="Zy7_CglpCBM92WgSBoQE-5" value="MES" style="swimlane;childLayout=stackLayout;resizeParent=1;resizeParentMax=0;horizontal=1;startSize=20;horizontalStack=0;html=1;" vertex="1" parent="1">
          <mxGeometry x="45" y="50" width="1095" height="710" as="geometry" />
        </mxCell>
        <mxCell id="Zy7_CglpCBM92WgSBoQE-6" value="D365FO" style="swimlane;startSize=20;horizontal=0;html=1;" vertex="1" parent="Zy7_CglpCBM92WgSBoQE-5">
          <mxGeometry y="20" width="1095" height="320" as="geometry" />
        </mxCell>
        <mxCell id="Zy7_CglpCBM92WgSBoQE-12" value="" style="edgeStyle=orthogonalEdgeStyle;rounded=0;orthogonalLoop=1;jettySize=auto;html=1;" edge="1" parent="Zy7_CglpCBM92WgSBoQE-6" source="Zy7_CglpCBM92WgSBoQE-10" target="Zy7_CglpCBM92WgSBoQE-11">
          <mxGeometry relative="1" as="geometry" />
        </mxCell>
        <mxCell id="Zy7_CglpCBM92WgSBoQE-10" value="" style="strokeWidth=2;html=1;shape=mxgraph.flowchart.start_2;whiteSpace=wrap;" vertex="1" parent="Zy7_CglpCBM92WgSBoQE-6">
          <mxGeometry x="30" y="10" width="50" height="50" as="geometry" />
        </mxCell>
        <mxCell id="Zy7_CglpCBM92WgSBoQE-18" value="" style="edgeStyle=orthogonalEdgeStyle;rounded=0;orthogonalLoop=1;jettySize=auto;html=1;" edge="1" parent="Zy7_CglpCBM92WgSBoQE-6" source="Zy7_CglpCBM92WgSBoQE-11" target="Zy7_CglpCBM92WgSBoQE-17">
          <mxGeometry relative="1" as="geometry" />
        </mxCell>
        <mxCell id="Zy7_CglpCBM92WgSBoQE-11" value="&lt;font style=&quot;font-size: 8px;&quot;&gt;&lt;font style=&quot;font-size: 8px;&quot;&gt;Release Prod&lt;/font&gt;uction&lt;/font&gt;" style="whiteSpace=wrap;html=1;strokeWidth=2;fillColor=#d5e8d4;strokeColor=#82b366;" vertex="1" parent="Zy7_CglpCBM92WgSBoQE-6">
          <mxGeometry x="120" y="10" width="80" height="50" as="geometry" />
        </mxCell>
        <mxCell id="Zy7_CglpCBM92WgSBoQE-17" value="" style="rhombus;whiteSpace=wrap;html=1;strokeWidth=2;" vertex="1" parent="Zy7_CglpCBM92WgSBoQE-6">
          <mxGeometry x="140" y="70" width="40" height="40" as="geometry" />
        </mxCell>
        <mxCell id="Zy7_CglpCBM92WgSBoQE-32" value="&lt;font style=&quot;font-size: 8px;&quot;&gt;&lt;font style=&quot;font-size: 8px;&quot;&gt;new status:&amp;nbsp;&lt;/font&gt;&lt;/font&gt;&lt;div&gt;&lt;font style=&quot;font-size: 8px;&quot;&gt;&lt;font style=&quot;font-size: 8px;&quot;&gt;star&lt;/font&gt;ted&lt;/font&gt;&lt;/div&gt;" style="whiteSpace=wrap;html=1;strokeWidth=2;fillColor=#d5e8d4;strokeColor=#82b366;" vertex="1" parent="Zy7_CglpCBM92WgSBoQE-6">
          <mxGeometry x="240" y="10" width="70" height="50" as="geometry" />
        </mxCell>
        <mxCell id="Zy7_CglpCBM92WgSBoQE-51" value="" style="edgeStyle=orthogonalEdgeStyle;rounded=0;orthogonalLoop=1;jettySize=auto;html=1;" edge="1" parent="Zy7_CglpCBM92WgSBoQE-6" source="Zy7_CglpCBM92WgSBoQE-48" target="Zy7_CglpCBM92WgSBoQE-50">
          <mxGeometry relative="1" as="geometry" />
        </mxCell>
        <mxCell id="Zy7_CglpCBM92WgSBoQE-53" value="" style="edgeStyle=orthogonalEdgeStyle;rounded=0;orthogonalLoop=1;jettySize=auto;html=1;" edge="1" parent="Zy7_CglpCBM92WgSBoQE-6" source="Zy7_CglpCBM92WgSBoQE-48" target="Zy7_CglpCBM92WgSBoQE-52">
          <mxGeometry relative="1" as="geometry" />
        </mxCell>
        <mxCell id="Zy7_CglpCBM92WgSBoQE-65" style="edgeStyle=orthogonalEdgeStyle;rounded=0;orthogonalLoop=1;jettySize=auto;html=1;exitX=1;exitY=0.5;exitDx=0;exitDy=0;entryX=0.5;entryY=1;entryDx=0;entryDy=0;" edge="1" parent="Zy7_CglpCBM92WgSBoQE-6" source="Zy7_CglpCBM92WgSBoQE-48" target="Zy7_CglpCBM92WgSBoQE-54">
          <mxGeometry relative="1" as="geometry" />
        </mxCell>
        <mxCell id="Zy7_CglpCBM92WgSBoQE-48" value="" style="rhombus;whiteSpace=wrap;html=1;strokeWidth=2;" vertex="1" parent="Zy7_CglpCBM92WgSBoQE-6">
          <mxGeometry x="419" y="88" width="40" height="40" as="geometry" />
        </mxCell>
        <mxCell id="Zy7_CglpCBM92WgSBoQE-50" value="&lt;font style=&quot;font-size: 8px;&quot;&gt;post finished good qty&lt;/font&gt;" style="whiteSpace=wrap;html=1;strokeWidth=2;fillColor=#d5e8d4;strokeColor=#82b366;" vertex="1" parent="Zy7_CglpCBM92WgSBoQE-6">
          <mxGeometry x="330" y="10" width="60" height="50" as="geometry" />
        </mxCell>
        <mxCell id="Zy7_CglpCBM92WgSBoQE-52" value="&lt;font style=&quot;font-size: 8px;&quot;&gt;post resource time spend&lt;/font&gt;" style="whiteSpace=wrap;html=1;strokeWidth=2;fillColor=#d5e8d4;strokeColor=#82b366;" vertex="1" parent="Zy7_CglpCBM92WgSBoQE-6">
          <mxGeometry x="404" y="10" width="70" height="50" as="geometry" />
        </mxCell>
        <mxCell id="Zy7_CglpCBM92WgSBoQE-71" style="edgeStyle=orthogonalEdgeStyle;rounded=0;orthogonalLoop=1;jettySize=auto;html=1;exitX=1;exitY=0.5;exitDx=0;exitDy=0;entryX=0.5;entryY=1;entryDx=0;entryDy=0;" edge="1" parent="Zy7_CglpCBM92WgSBoQE-6" source="Zy7_CglpCBM92WgSBoQE-54" target="Zy7_CglpCBM92WgSBoQE-69">
          <mxGeometry relative="1" as="geometry" />
        </mxCell>
        <mxCell id="Zy7_CglpCBM92WgSBoQE-54" value="&lt;font style=&quot;font-size: 8px;&quot;&gt;Pick list posting&lt;/font&gt;" style="whiteSpace=wrap;html=1;strokeWidth=2;fillColor=#f8cecc;strokeColor=#b85450;" vertex="1" parent="Zy7_CglpCBM92WgSBoQE-6">
          <mxGeometry x="487" y="10" width="66" height="50" as="geometry" />
        </mxCell>
        <mxCell id="Zy7_CglpCBM92WgSBoQE-60" value="&lt;font style=&quot;font-size: 8px;&quot;&gt;delete / ignore original BOM&amp;nbsp;&lt;/font&gt;" style="whiteSpace=wrap;html=1;strokeWidth=2;fillColor=#f8cecc;strokeColor=#b85450;" vertex="1" parent="Zy7_CglpCBM92WgSBoQE-6">
          <mxGeometry x="665" y="10" width="65" height="50" as="geometry" />
        </mxCell>
        <mxCell id="Zy7_CglpCBM92WgSBoQE-62" value="&lt;font style=&quot;font-size: 8px;&quot;&gt;reduce planned material qty&lt;/font&gt;" style="whiteSpace=wrap;html=1;strokeWidth=2;fillColor=#f8cecc;strokeColor=#b85450;" vertex="1" parent="Zy7_CglpCBM92WgSBoQE-6">
          <mxGeometry x="665" y="82" width="65" height="50" as="geometry" />
        </mxCell>
        <mxCell id="Zy7_CglpCBM92WgSBoQE-63" value="&lt;font style=&quot;font-size: 8px;&quot;&gt;post material receive in JSON&lt;/font&gt;" style="whiteSpace=wrap;html=1;strokeWidth=2;fillColor=#f8cecc;strokeColor=#b85450;" vertex="1" parent="Zy7_CglpCBM92WgSBoQE-6">
          <mxGeometry x="665" y="150" width="65" height="50" as="geometry" />
        </mxCell>
        <mxCell id="Zy7_CglpCBM92WgSBoQE-75" style="edgeStyle=orthogonalEdgeStyle;rounded=0;orthogonalLoop=1;jettySize=auto;html=1;exitX=0;exitY=0.5;exitDx=0;exitDy=0;entryX=0;entryY=0.5;entryDx=0;entryDy=0;" edge="1" parent="Zy7_CglpCBM92WgSBoQE-6" source="Zy7_CglpCBM92WgSBoQE-69" target="Zy7_CglpCBM92WgSBoQE-60">
          <mxGeometry relative="1" as="geometry" />
        </mxCell>
        <mxCell id="Zy7_CglpCBM92WgSBoQE-83" style="edgeStyle=orthogonalEdgeStyle;rounded=0;orthogonalLoop=1;jettySize=auto;html=1;exitX=1;exitY=0.5;exitDx=0;exitDy=0;entryX=0;entryY=0.5;entryDx=0;entryDy=0;" edge="1" parent="Zy7_CglpCBM92WgSBoQE-6" source="Zy7_CglpCBM92WgSBoQE-69" target="Zy7_CglpCBM92WgSBoQE-63">
          <mxGeometry relative="1" as="geometry" />
        </mxCell>
        <mxCell id="Zy7_CglpCBM92WgSBoQE-85" style="edgeStyle=orthogonalEdgeStyle;rounded=0;orthogonalLoop=1;jettySize=auto;html=1;exitX=0.5;exitY=0;exitDx=0;exitDy=0;entryX=0;entryY=0.5;entryDx=0;entryDy=0;" edge="1" parent="Zy7_CglpCBM92WgSBoQE-6" source="Zy7_CglpCBM92WgSBoQE-69" target="Zy7_CglpCBM92WgSBoQE-62">
          <mxGeometry relative="1" as="geometry" />
        </mxCell>
        <mxCell id="Zy7_CglpCBM92WgSBoQE-69" value="" style="rhombus;whiteSpace=wrap;html=1;strokeWidth=2;direction=south;" vertex="1" parent="Zy7_CglpCBM92WgSBoQE-6">
          <mxGeometry x="597" y="87" width="40" height="40" as="geometry" />
        </mxCell>
        <mxCell id="Zy7_CglpCBM92WgSBoQE-77" value="&lt;font style=&quot;font-size: 8px;&quot;&gt;post finished good qty&lt;/font&gt;" style="whiteSpace=wrap;html=1;strokeWidth=2;fillColor=#d5e8d4;strokeColor=#82b366;" vertex="1" parent="Zy7_CglpCBM92WgSBoQE-6">
          <mxGeometry x="770" y="11" width="71" height="50" as="geometry" />
        </mxCell>
        <mxCell id="Zy7_CglpCBM92WgSBoQE-78" value="&lt;font style=&quot;font-size: 8px;&quot;&gt;post resource time spend&lt;/font&gt;" style="whiteSpace=wrap;html=1;strokeWidth=2;fillColor=#d5e8d4;strokeColor=#82b366;" vertex="1" parent="Zy7_CglpCBM92WgSBoQE-6">
          <mxGeometry x="857" y="11" width="70" height="50" as="geometry" />
        </mxCell>
        <mxCell id="Zy7_CglpCBM92WgSBoQE-88" style="edgeStyle=orthogonalEdgeStyle;rounded=0;orthogonalLoop=1;jettySize=auto;html=1;exitX=0;exitY=0.5;exitDx=0;exitDy=0;entryX=0.5;entryY=1;entryDx=0;entryDy=0;" edge="1" parent="Zy7_CglpCBM92WgSBoQE-6" source="Zy7_CglpCBM92WgSBoQE-79" target="Zy7_CglpCBM92WgSBoQE-77">
          <mxGeometry relative="1" as="geometry" />
        </mxCell>
        <mxCell id="Zy7_CglpCBM92WgSBoQE-89" style="edgeStyle=orthogonalEdgeStyle;rounded=0;orthogonalLoop=1;jettySize=auto;html=1;exitX=0.5;exitY=0;exitDx=0;exitDy=0;entryX=0.5;entryY=1;entryDx=0;entryDy=0;" edge="1" parent="Zy7_CglpCBM92WgSBoQE-6" source="Zy7_CglpCBM92WgSBoQE-79" target="Zy7_CglpCBM92WgSBoQE-78">
          <mxGeometry relative="1" as="geometry" />
        </mxCell>
        <mxCell id="Zy7_CglpCBM92WgSBoQE-91" style="edgeStyle=orthogonalEdgeStyle;rounded=0;orthogonalLoop=1;jettySize=auto;html=1;exitX=1;exitY=0.5;exitDx=0;exitDy=0;entryX=0.5;entryY=1;entryDx=0;entryDy=0;" edge="1" parent="Zy7_CglpCBM92WgSBoQE-6" source="Zy7_CglpCBM92WgSBoQE-79" target="Zy7_CglpCBM92WgSBoQE-90">
          <mxGeometry relative="1" as="geometry" />
        </mxCell>
        <mxCell id="Zy7_CglpCBM92WgSBoQE-79" value="" style="rhombus;whiteSpace=wrap;html=1;strokeWidth=2;" vertex="1" parent="Zy7_CglpCBM92WgSBoQE-6">
          <mxGeometry x="872" y="91" width="40" height="40" as="geometry" />
        </mxCell>
        <mxCell id="Zy7_CglpCBM92WgSBoQE-90" value="&lt;font style=&quot;font-size: 8px;&quot;&gt;post production end&lt;/font&gt;" style="whiteSpace=wrap;html=1;strokeWidth=2;fillColor=#fff2cc;strokeColor=#d6b656;" vertex="1" parent="Zy7_CglpCBM92WgSBoQE-6">
          <mxGeometry x="943" y="11" width="70" height="50" as="geometry" />
        </mxCell>
        <mxCell id="Zy7_CglpCBM92WgSBoQE-7" value="MES FlexxLink" style="swimlane;startSize=20;horizontal=0;html=1;" vertex="1" parent="Zy7_CglpCBM92WgSBoQE-5">
          <mxGeometry y="340" width="1095" height="100" as="geometry" />
        </mxCell>
        <mxCell id="Zy7_CglpCBM92WgSBoQE-30" value="&lt;font style=&quot;font-size: 8px;&quot;&gt;JSON import, Validation, post production start&lt;/font&gt;" style="whiteSpace=wrap;html=1;strokeWidth=2;fillColor=#d5e8d4;strokeColor=#82b366;" vertex="1" parent="Zy7_CglpCBM92WgSBoQE-7">
          <mxGeometry x="240" y="24" width="70" height="60" as="geometry" />
        </mxCell>
        <mxCell id="Zy7_CglpCBM92WgSBoQE-42" value="&lt;font style=&quot;font-size: 8px;&quot;&gt;JSON import, Validation, post production progress&lt;/font&gt;" style="whiteSpace=wrap;html=1;strokeWidth=2;fillColor=#fff2cc;strokeColor=#d6b656;" vertex="1" parent="Zy7_CglpCBM92WgSBoQE-7">
          <mxGeometry x="404" y="20" width="70" height="60" as="geometry" />
        </mxCell>
        <mxCell id="Zy7_CglpCBM92WgSBoQE-80" value="&lt;font style=&quot;font-size: 8px;&quot;&gt;JSON import, Validation, post production end&lt;/font&gt;" style="whiteSpace=wrap;html=1;strokeWidth=2;fillColor=#fff2cc;strokeColor=#d6b656;" vertex="1" parent="Zy7_CglpCBM92WgSBoQE-7">
          <mxGeometry x="857" y="21" width="70" height="60" as="geometry" />
        </mxCell>
        <mxCell id="Zy7_CglpCBM92WgSBoQE-8" value="Lasernet" style="swimlane;startSize=20;horizontal=0;html=1;" vertex="1" parent="Zy7_CglpCBM92WgSBoQE-5">
          <mxGeometry y="440" width="1095" height="120" as="geometry" />
        </mxCell>
        <mxCell id="Zy7_CglpCBM92WgSBoQE-13" value="&lt;font style=&quot;font-size: 8px;&quot;&gt;Release Production XML2JSON&lt;/font&gt;" style="whiteSpace=wrap;html=1;strokeWidth=2;fillColor=#fff2cc;strokeColor=#d6b656;" vertex="1" parent="Zy7_CglpCBM92WgSBoQE-8">
          <mxGeometry x="80" y="40" width="80" height="40" as="geometry" />
        </mxCell>
        <mxCell id="Zy7_CglpCBM92WgSBoQE-20" value="&lt;font style=&quot;font-size: 8px;&quot;&gt;Production withdrawn&lt;/font&gt;" style="whiteSpace=wrap;html=1;strokeWidth=2;fillColor=#d5e8d4;strokeColor=#82b366;" vertex="1" parent="Zy7_CglpCBM92WgSBoQE-8">
          <mxGeometry x="171" y="40" width="60" height="40" as="geometry" />
        </mxCell>
        <mxCell id="Zy7_CglpCBM92WgSBoQE-27" value="&lt;font style=&quot;font-size: 8px;&quot;&gt;Production started JSON&lt;/font&gt;" style="whiteSpace=wrap;html=1;strokeWidth=2;fillColor=#fff2cc;strokeColor=#d6b656;" vertex="1" parent="Zy7_CglpCBM92WgSBoQE-8">
          <mxGeometry x="240" y="40" width="70" height="40" as="geometry" />
        </mxCell>
        <mxCell id="Zy7_CglpCBM92WgSBoQE-43" value="&lt;font style=&quot;font-size: 8px;&quot;&gt;Production progress&lt;/font&gt;" style="whiteSpace=wrap;html=1;strokeWidth=2;fillColor=#fff2cc;strokeColor=#d6b656;" vertex="1" parent="Zy7_CglpCBM92WgSBoQE-8">
          <mxGeometry x="404" y="41" width="70" height="40" as="geometry" />
        </mxCell>
        <mxCell id="Zy7_CglpCBM92WgSBoQE-81" value="&lt;font style=&quot;font-size: 8px;&quot;&gt;Production end&lt;/font&gt;" style="whiteSpace=wrap;html=1;strokeWidth=2;fillColor=#fff2cc;strokeColor=#d6b656;" vertex="1" parent="Zy7_CglpCBM92WgSBoQE-8">
          <mxGeometry x="857" y="42" width="70" height="40" as="geometry" />
        </mxCell>
        <mxCell id="Zy7_CglpCBM92WgSBoQE-9" value="ASB" style="swimlane;startSize=20;horizontal=0;html=1;" vertex="1" parent="Zy7_CglpCBM92WgSBoQE-5">
          <mxGeometry y="560" width="1095" height="150" as="geometry" />
        </mxCell>
        <mxCell id="Zy7_CglpCBM92WgSBoQE-15" value="" style="shape=process;whiteSpace=wrap;html=1;backgroundOutline=1;strokeWidth=2;fillColor=#d5e8d4;strokeColor=#82b366;" vertex="1" parent="Zy7_CglpCBM92WgSBoQE-9">
          <mxGeometry x="95" y="50" width="50" height="20" as="geometry" />
        </mxCell>
        <mxCell id="Zy7_CglpCBM92WgSBoQE-22" value="" style="shape=process;whiteSpace=wrap;html=1;backgroundOutline=1;strokeWidth=2;fillColor=#d5e8d4;strokeColor=#82b366;" vertex="1" parent="Zy7_CglpCBM92WgSBoQE-9">
          <mxGeometry x="176" y="50" width="50" height="20" as="geometry" />
        </mxCell>
        <mxCell id="Zy7_CglpCBM92WgSBoQE-24" value="" style="shape=process;whiteSpace=wrap;html=1;backgroundOutline=1;strokeWidth=2;fillColor=#d5e8d4;strokeColor=#82b366;" vertex="1" parent="Zy7_CglpCBM92WgSBoQE-9">
          <mxGeometry x="240" y="50" width="70" height="20" as="geometry" />
        </mxCell>
        <mxCell id="Zy7_CglpCBM92WgSBoQE-44" value="" style="shape=process;whiteSpace=wrap;html=1;backgroundOutline=1;strokeWidth=2;fillColor=#d5e8d4;strokeColor=#82b366;" vertex="1" parent="Zy7_CglpCBM92WgSBoQE-9">
          <mxGeometry x="404" y="51" width="70" height="20" as="geometry" />
        </mxCell>
        <mxCell id="Zy7_CglpCBM92WgSBoQE-82" value="" style="shape=process;whiteSpace=wrap;html=1;backgroundOutline=1;strokeWidth=2;fillColor=#d5e8d4;strokeColor=#82b366;" vertex="1" parent="Zy7_CglpCBM92WgSBoQE-9">
          <mxGeometry x="857" y="50" width="70" height="20" as="geometry" />
        </mxCell>
        <mxCell id="Zy7_CglpCBM92WgSBoQE-16" value="" style="edgeStyle=orthogonalEdgeStyle;rounded=0;orthogonalLoop=1;jettySize=auto;html=1;" edge="1" parent="Zy7_CglpCBM92WgSBoQE-5" source="Zy7_CglpCBM92WgSBoQE-13" target="Zy7_CglpCBM92WgSBoQE-15">
          <mxGeometry relative="1" as="geometry" />
        </mxCell>
        <mxCell id="Zy7_CglpCBM92WgSBoQE-19" style="edgeStyle=orthogonalEdgeStyle;rounded=0;orthogonalLoop=1;jettySize=auto;html=1;exitX=0;exitY=0.5;exitDx=0;exitDy=0;entryX=0.5;entryY=0;entryDx=0;entryDy=0;" edge="1" parent="Zy7_CglpCBM92WgSBoQE-5" source="Zy7_CglpCBM92WgSBoQE-17" target="Zy7_CglpCBM92WgSBoQE-13">
          <mxGeometry relative="1" as="geometry" />
        </mxCell>
        <mxCell id="Zy7_CglpCBM92WgSBoQE-21" value="" style="edgeStyle=orthogonalEdgeStyle;rounded=0;orthogonalLoop=1;jettySize=auto;html=1;exitX=1;exitY=0.5;exitDx=0;exitDy=0;" edge="1" parent="Zy7_CglpCBM92WgSBoQE-5" source="Zy7_CglpCBM92WgSBoQE-17" target="Zy7_CglpCBM92WgSBoQE-20">
          <mxGeometry relative="1" as="geometry" />
        </mxCell>
        <mxCell id="Zy7_CglpCBM92WgSBoQE-23" style="edgeStyle=orthogonalEdgeStyle;rounded=0;orthogonalLoop=1;jettySize=auto;html=1;entryX=0.5;entryY=0;entryDx=0;entryDy=0;exitX=0.5;exitY=1;exitDx=0;exitDy=0;" edge="1" parent="Zy7_CglpCBM92WgSBoQE-5" source="Zy7_CglpCBM92WgSBoQE-20" target="Zy7_CglpCBM92WgSBoQE-22">
          <mxGeometry relative="1" as="geometry">
            <mxPoint x="209" y="340" as="sourcePoint" />
            <mxPoint x="212" y="435" as="targetPoint" />
          </mxGeometry>
        </mxCell>
        <mxCell id="Zy7_CglpCBM92WgSBoQE-28" value="" style="edgeStyle=orthogonalEdgeStyle;rounded=0;orthogonalLoop=1;jettySize=auto;html=1;" edge="1" parent="Zy7_CglpCBM92WgSBoQE-5" source="Zy7_CglpCBM92WgSBoQE-24" target="Zy7_CglpCBM92WgSBoQE-27">
          <mxGeometry relative="1" as="geometry" />
        </mxCell>
        <mxCell id="Zy7_CglpCBM92WgSBoQE-31" value="" style="edgeStyle=orthogonalEdgeStyle;rounded=0;orthogonalLoop=1;jettySize=auto;html=1;" edge="1" parent="Zy7_CglpCBM92WgSBoQE-5" source="Zy7_CglpCBM92WgSBoQE-27" target="Zy7_CglpCBM92WgSBoQE-30">
          <mxGeometry relative="1" as="geometry" />
        </mxCell>
        <mxCell id="Zy7_CglpCBM92WgSBoQE-33" value="" style="edgeStyle=orthogonalEdgeStyle;rounded=0;orthogonalLoop=1;jettySize=auto;html=1;" edge="1" parent="Zy7_CglpCBM92WgSBoQE-5" source="Zy7_CglpCBM92WgSBoQE-30" target="Zy7_CglpCBM92WgSBoQE-32">
          <mxGeometry relative="1" as="geometry" />
        </mxCell>
        <mxCell id="Zy7_CglpCBM92WgSBoQE-45" value="" style="edgeStyle=orthogonalEdgeStyle;rounded=0;orthogonalLoop=1;jettySize=auto;html=1;" edge="1" source="Zy7_CglpCBM92WgSBoQE-44" target="Zy7_CglpCBM92WgSBoQE-43" parent="Zy7_CglpCBM92WgSBoQE-5">
          <mxGeometry relative="1" as="geometry" />
        </mxCell>
        <mxCell id="Zy7_CglpCBM92WgSBoQE-46" value="" style="edgeStyle=orthogonalEdgeStyle;rounded=0;orthogonalLoop=1;jettySize=auto;html=1;" edge="1" source="Zy7_CglpCBM92WgSBoQE-43" target="Zy7_CglpCBM92WgSBoQE-42" parent="Zy7_CglpCBM92WgSBoQE-5">
          <mxGeometry relative="1" as="geometry" />
        </mxCell>
        <mxCell id="Zy7_CglpCBM92WgSBoQE-49" value="" style="edgeStyle=orthogonalEdgeStyle;rounded=0;orthogonalLoop=1;jettySize=auto;html=1;" edge="1" parent="Zy7_CglpCBM92WgSBoQE-5" source="Zy7_CglpCBM92WgSBoQE-42" target="Zy7_CglpCBM92WgSBoQE-48">
          <mxGeometry relative="1" as="geometry" />
        </mxCell>
        <mxCell id="Zy7_CglpCBM92WgSBoQE-86" style="edgeStyle=orthogonalEdgeStyle;rounded=0;orthogonalLoop=1;jettySize=auto;html=1;exitX=0.5;exitY=0;exitDx=0;exitDy=0;entryX=0.5;entryY=1;entryDx=0;entryDy=0;" edge="1" parent="Zy7_CglpCBM92WgSBoQE-5" source="Zy7_CglpCBM92WgSBoQE-81" target="Zy7_CglpCBM92WgSBoQE-80">
          <mxGeometry relative="1" as="geometry" />
        </mxCell>
        <mxCell id="Zy7_CglpCBM92WgSBoQE-87" style="edgeStyle=orthogonalEdgeStyle;rounded=0;orthogonalLoop=1;jettySize=auto;html=1;exitX=0.5;exitY=0;exitDx=0;exitDy=0;entryX=0.5;entryY=1;entryDx=0;entryDy=0;" edge="1" parent="Zy7_CglpCBM92WgSBoQE-5" source="Zy7_CglpCBM92WgSBoQE-80" target="Zy7_CglpCBM92WgSBoQE-79">
          <mxGeometry relative="1" as="geometry" />
        </mxCell>
        <mxCell id="Zy7_CglpCBM92WgSBoQE-92" style="edgeStyle=orthogonalEdgeStyle;rounded=0;orthogonalLoop=1;jettySize=auto;html=1;exitX=0.5;exitY=0;exitDx=0;exitDy=0;entryX=0.5;entryY=1;entryDx=0;entryDy=0;" edge="1" parent="Zy7_CglpCBM92WgSBoQE-5" source="Zy7_CglpCBM92WgSBoQE-82" target="Zy7_CglpCBM92WgSBoQE-81">
          <mxGeometry relative="1" as="geometry" />
        </mxCell>
      </root>
    </mxGraphModel>
  </diagram>
</mxfile>
